<svg id="Layer_1" data-name="Layer 1" xmlns="http://www.w3.org/2000/svg" viewBox="0 0 200 200"><defs><style>.cls-1{fill:#3d4246;}</style></defs><title>individual-expanded</title><path class="cls-1" d="M158,18.72H42.05a23,23,0,0,0-23,23v115.9a23,23,0,0,0,23,23H158a23,23,0,0,0,23-23V41.72A23,23,0,0,0,158,18.72Zm17,138.9a17,17,0,0,1-17,17h-38.9v-60H139.5a2.51,2.51,0,0,0,2.49-2.23l1.95-17.32a2.51,2.51,0,0,0-2.5-2.79H119.05V78.17a8.37,8.37,0,0,1,8.37-8.37h14.32a2.51,2.51,0,0,0,2.51-2.51V50.12a2.51,2.51,0,0,0-2.51-2.51H110.93A16.75,16.75,0,0,0,94.18,64.36v28H83.06a2.51,2.51,0,0,0-2.51,2.51v17.32a2.51,2.51,0,0,0,2.51,2.51H94.18v60H42.05a17,17,0,0,1-17-17V41.72a17,17,0,0,1,17-17H158a17,17,0,0,1,17,17Z"/></svg>