<?xml version="1.0" encoding="utf-8"?>
<!-- Generator: Adobe Illustrator 23.0.3, SVG Export Plug-In . SVG Version: 6.00 Build 0)  -->
<svg version="1.1" id="Layer_1" xmlns="http://www.w3.org/2000/svg" xmlns:xlink="http://www.w3.org/1999/xlink" x="0px" y="0px"
	 viewBox="0 0 200 200" style="enable-background:new 0 0 200 200;" xml:space="preserve">
<style type="text/css">
	.st0{fill:#3d4246;}
</style>
<g>
	<path class="st0" d="M49,98.8L44.8,79c-0.7-2.7-2.8-3.5-5.3-3.7H20.6l-0.2,0.9C35.1,79.9,44.9,88.5,49,98.8z"/>
	<polygon class="st0" points="92.8,75.8 80.6,75.8 72.9,120.6 85.1,120.6 	"/>
	<path class="st0" d="M56.4,120.5l19.2-44.7H62.7l-12,30.6l-1.3-4.6c-2.3-5.6-9-13.5-16.9-18.6l10.9,37.4L56.4,120.5z"/>
	<path class="st0" d="M127.7,105.9c0-5.1-3.2-9-10.3-12.2c-4.3-2.1-6.9-3.5-6.9-5.6c0-1.9,2.2-3.8,7-3.8c4-0.1,6.9,0.8,9.1,1.7
		l1.1,0.5l1.7-9.7c-2.4-0.9-6.2-1.9-11-1.9c-12.1,0-20.6,6.1-20.6,14.8c-0.1,6.4,6.1,10,10.7,12.2c4.8,2.2,6.3,3.6,6.3,5.6
		c0,3-3.8,4.4-7.3,4.4c-4.9,0-7.5-0.7-11.5-2.3l-1.6-0.7l-1.7,10c2.9,1.2,8.1,2.3,13.6,2.4C119.2,121.3,127.6,115.3,127.7,105.9z"/>
	<path class="st0" d="M142.2,113.9c1.4,0,13.9,0,15.6,0c0.4,1.6,1.5,6.7,1.5,6.7h11.3l-9.9-44.8h-9.4c-2.9,0-5.1,0.8-6.4,3.7
		l-18.1,41.1h12.8C139.6,120.6,141.7,115.1,142.2,113.9z M150.6,92.2c-0.1,0.1,1-2.6,1.6-4.3l0.8,3.9c0,0,2.3,10.7,2.8,12.9h-10.1
		C146.7,102.1,150.6,92.2,150.6,92.2z"/>
</g>
</svg>
