<?xml version="1.0" encoding="utf-8"?>
<!-- Generator: Adobe Illustrator 23.0.3, SVG Export Plug-In . SVG Version: 6.00 Build 0)  -->
<svg version="1.1" id="Layer_1" xmlns="http://www.w3.org/2000/svg" xmlns:xlink="http://www.w3.org/1999/xlink" x="0px" y="0px"
	 viewBox="0 0 200 200" style="enable-background:new 0 0 200 200;" xml:space="preserve">
<style type="text/css">
	.st0{fill:#3d4246;}
</style>
<g>
	<path class="st0" d="M54.6,155.7v-7.5c0.2-2.5-1.7-4.6-4.2-4.8c-0.2,0-0.4,0-0.6,0c-1.7-0.1-3.3,0.7-4.2,2.1
		c-0.8-1.4-2.4-2.2-4-2.1c-1.4-0.1-2.7,0.6-3.5,1.8v-1.5h-2.6v12h2.6V149c-0.2-1.5,0.9-3,2.4-3.2c0.2,0,0.4,0,0.5,0
		c1.7,0,2.6,1.1,2.6,3.2v6.7h2.6V149c-0.2-1.5,0.9-3,2.4-3.2c0.2,0,0.3,0,0.5,0c1.8,0,2.6,1.1,2.6,3.2v6.7L54.6,155.7z M93.7,143.6
		h-4.3V140h-2.6v3.6h-2.4v2.4h2.4v5.5c0,2.8,1.1,4.5,4.2,4.5c1.2,0,2.3-0.3,3.3-0.9l-0.8-2.2c-0.7,0.4-1.5,0.7-2.3,0.7
		c-1.3,0-1.7-0.8-1.7-2V146h4.3L93.7,143.6z M116,143.3c-1.3,0-2.5,0.6-3.2,1.8v-1.5h-2.6v12h2.6v-6.7c0-2,0.9-3.1,2.5-3.1
		c0.6,0,1.1,0.1,1.6,0.3l0.8-2.5C117.2,143.4,116.6,143.3,116,143.3L116,143.3z M82.3,144.6c-1.5-0.9-3.2-1.3-4.9-1.3
		c-3,0-5,1.5-5,3.8c0,2,1.5,3.2,4.2,3.5l1.3,0.2c1.4,0.2,2.1,0.6,2.1,1.3c0,0.9-1,1.5-2.7,1.5c-1.4,0-2.8-0.4-4-1.3l-1.3,2
		c1.5,1.1,3.3,1.6,5.2,1.6c3.5,0,5.5-1.6,5.5-3.9s-1.6-3.2-4.2-3.6l-1.3-0.2c-1.1-0.2-2-0.4-2-1.2s0.9-1.4,2.3-1.4
		c1.3,0,2.6,0.4,3.8,1L82.3,144.6z M152.4,143.3c-1.3,0-2.5,0.6-3.2,1.8v-1.5h-2.6v12h2.6v-6.7c0-2,0.9-3.1,2.5-3.1
		c0.6,0,1.1,0.1,1.6,0.3l0.8-2.5C153.6,143.4,153,143.3,152.4,143.3L152.4,143.3z M118.7,149.6c-0.1,3.4,2.5,6.2,5.8,6.3
		c0.2,0,0.4,0,0.6,0c1.6,0.1,3.1-0.4,4.3-1.4l-1.3-2.1c-0.9,0.7-2,1.1-3.1,1.1c-2.1-0.2-3.7-2-3.5-4.2c0.2-1.9,1.7-3.4,3.5-3.5
		c1.1,0,2.2,0.4,3.1,1.1l1.3-2.1c-1.2-1-2.8-1.5-4.3-1.4c-3.4-0.2-6.2,2.4-6.4,5.7C118.6,149.2,118.6,149.4,118.7,149.6L118.7,149.6
		z M143.2,149.6v-6h-2.6v1.5c-0.9-1.2-2.3-1.8-3.8-1.8c-3.5,0-6.3,2.8-6.3,6.3s2.8,6.3,6.3,6.3c1.5,0.1,2.9-0.6,3.8-1.8v1.5h2.6
		V149.6z M133.4,149.6c0.1-2,1.8-3.5,3.8-3.4c2,0.1,3.5,1.8,3.4,3.8c-0.1,1.9-1.7,3.4-3.6,3.4c-2,0-3.6-1.6-3.7-3.6
		C133.4,149.8,133.4,149.7,133.4,149.6z M101.8,143.3c-3.5,0-6.3,2.9-6.2,6.4c0,3.5,2.9,6.3,6.4,6.2l0,0c1.8,0.1,3.6-0.5,5-1.6
		l-1.3-1.9c-1,0.8-2.2,1.2-3.5,1.3c-1.8,0.2-3.4-1.2-3.6-2.9h8.9c0-0.3,0-0.7,0-1C107.6,145.9,105.3,143.4,101.8,143.3L101.8,143.3z
		 M101.8,145.7c1.6,0,3,1.3,3,2.9c0,0,0,0,0,0h-6.3C98.7,146.9,100.1,145.6,101.8,145.7L101.8,145.7z M167.4,149.7v-10.8h-2.5v6.3
		c-0.9-1.2-2.3-1.8-3.8-1.8c-3.5,0-6.3,2.8-6.3,6.3s2.8,6.3,6.3,6.3c1.5,0.1,2.9-0.6,3.8-1.8v1.5h2.5V149.7z M171.8,153.9
		c0.2,0,0.3,0,0.5,0.1c0.1,0.1,0.3,0.1,0.4,0.3c0.1,0.1,0.2,0.2,0.3,0.4c0.1,0.3,0.1,0.6,0,0.9c-0.1,0.1-0.2,0.3-0.3,0.4
		c-0.1,0.1-0.2,0.2-0.4,0.3c-0.2,0.1-0.3,0.1-0.5,0.1c-0.5,0-0.9-0.3-1.1-0.7c-0.1-0.3-0.1-0.6,0-0.9c0.1-0.1,0.2-0.3,0.3-0.4
		c0.1-0.1,0.2-0.2,0.4-0.3C171.5,153.9,171.6,153.9,171.8,153.9L171.8,153.9z M171.8,156c0.1,0,0.2,0,0.4-0.1c0.1,0,0.2-0.1,0.3-0.2
		c0.3-0.4,0.3-0.9,0-1.3c-0.1-0.1-0.2-0.2-0.3-0.2c-0.1-0.1-0.2-0.1-0.4-0.1c-0.1,0-0.2,0-0.4,0.1c-0.1,0-0.2,0.1-0.3,0.2
		c-0.3,0.4-0.3,0.9,0,1.3c0.1,0.1,0.2,0.2,0.3,0.2C171.5,156,171.7,156,171.8,156L171.8,156z M171.8,154.5c0.1,0,0.2,0,0.3,0.1
		c0.1,0.1,0.1,0.2,0.1,0.3c0,0.1,0,0.2-0.1,0.2c-0.1,0.1-0.2,0.1-0.3,0.1l0.4,0.4H172l-0.3-0.4h-0.1v0.4h-0.2v-1.1L171.8,154.5z
		 M171.6,154.8v0.3h0.3c0,0,0.1,0,0.2,0c0,0,0-0.1,0-0.1c0,0,0-0.1,0-0.1c0,0-0.1,0-0.2,0L171.6,154.8z M157.7,149.7
		c0.1-2,1.8-3.5,3.8-3.4c2,0.1,3.5,1.8,3.4,3.8c-0.1,1.9-1.7,3.4-3.6,3.4c-2,0-3.6-1.6-3.7-3.6C157.7,149.8,157.7,149.7,157.7,149.7
		z M69.4,149.7v-6h-2.6v1.5c-0.9-1.2-2.3-1.8-3.8-1.8c-3.5,0-6.3,2.8-6.3,6.3s2.8,6.3,6.3,6.3c1.5,0.1,2.9-0.6,3.8-1.8v1.5h2.6
		L69.4,149.7z M59.6,149.7c0.1-2,1.8-3.5,3.8-3.4c2,0.1,3.5,1.8,3.4,3.8c-0.1,1.9-1.7,3.4-3.6,3.4c-2,0-3.6-1.5-3.7-3.5
		C59.6,149.9,59.6,149.8,59.6,149.7L59.6,149.7z"/>
	<g>
		<path class="st0" d="M73.3,48.3c8.9,0,17.3,2.9,24.2,8.4c2.5,1.9,4.7,4.2,6.6,6.6c13.4,17,10.4,41.8-6.6,55.2
			c-6.9,5.4-15.5,8.4-24.3,8.4c-8.8,0-17.4-3-24.3-8.4c-8.3-6.5-13.5-15.8-14.7-26.2c-1.2-10.4,1.6-20.7,8.1-29
			C49.9,53.8,61.1,48.3,73.3,48.3L73.3,48.3 M73.3,42.3c-13.4,0-26.7,5.9-35.6,17.3c-15.5,19.7-12.1,48.1,7.6,63.6
			c8.2,6.5,18.1,9.7,28,9.7s19.8-3.2,28-9.7c19.7-15.4,23.1-43.9,7.6-63.6c-2.2-2.8-4.8-5.4-7.6-7.6C92.9,45.5,83.1,42.3,73.3,42.3
			L73.3,42.3z"/>
	</g>
	<path class="st0" d="M174.5,87.6L174.5,87.6c0,25-20.3,45.3-45.3,45.3c-10.2,0-20-3.4-28-9.7c19.7-15.4,23.1-43.9,7.6-63.6
		c-2.2-2.8-4.8-5.4-7.6-7.6c19.7-15.5,48.1-12.1,63.6,7.6C171.1,67.6,174.5,77.4,174.5,87.6z"/>
	<path class="st0" d="M170.2,115.7v-1.5h0.6v-0.3h-1.5v0.3h0.6v1.5L170.2,115.7z M173.1,115.7v-1.8h-0.5l-0.5,1.3l-0.5-1.3h-0.4v1.8
		h0.3v-1.3l0.5,1.1h0.3l0.5-1.1v1.3L173.1,115.7z"/>
</g>
</svg>
